<?xml version="1.0"?>
<svg xmlns="http://www.w3.org/2000/svg" xmlns:xlink="http://www.w3.org/1999/xlink" xmlns:svgjs="http://svgjs.com/svgjs" version="1.1" width="512" height="512" x="0" y="0" viewBox="0 0 64 64" style="enable-background:new 0 0 512 512" xml:space="preserve" class=""><g><path xmlns="http://www.w3.org/2000/svg" d="m1 61v2h62v-2h-16-30z" fill="#00c6cf" data-original="#000000" style="" class=""/><path xmlns="http://www.w3.org/2000/svg" d="m17 49c-2.206 0-4 1.794-4 4s1.794 4 4 4 4-1.794 4-4-1.794-4-4-4zm0 6c-1.103 0-2-.897-2-2s.897-2 2-2 2 .897 2 2-.897 2-2 2z" fill="#00c6cf" data-original="#000000" style="" class=""/><path xmlns="http://www.w3.org/2000/svg" d="m54.931 54h5.069c1.654 0 3-1.346 3-3v-10c0-.379-.214-.725-.553-.895l-7.795-3.897-8.058-10.476c-1.316-1.711-3.39-2.732-5.548-2.732h-4.046v-4h11c.553 0 1-.448 1-1v-16c0-.552-.447-1-1-1h-32c-.553 0-1 .448-1 1v16c0 .552.447 1 1 1h11v4.294c-1.411.414-2.685 1.256-3.595 2.438l-7.973 10.368-9.689 2.076c-2.749.589-4.743 3.055-4.743 5.866v6.958c0 1.654 1.346 3 3 3h5.069c.495 3.94 3.859 7 7.931 7s7.436-3.06 7.931-7h14.139c.495 3.94 3.859 7 7.931 7s7.435-3.06 7.93-7zm6.069-6h-2v-7.382l2 1zm-44-45h30v14h-30zm18 16v4h-6v-4zm-31.996 25h1.996v2h-2v-1.958c0-.014.004-.028.004-.042zm-.004 7v-3h3c.553 0 1-.447 1-1v-4c0-.553-.447-1-1-1h-2.425c.557-.93 1.477-1.631 2.587-1.869l10.048-2.153c.231-.05.438-.18.583-.368l8.198-10.658c.94-1.223 2.421-1.952 3.963-1.952h12.092c1.542 0 3.023.729 3.963 1.952l8.198 10.658c.093.12.211.218.346.285l3.447 1.723v9.382c0 .553.447 1 1 1h3v1c0 .552-.448 1-1 1h-5.069c-.495-3.94-3.859-7-7.931-7s-7.436 3.06-7.931 7h-14.138c-.495-3.94-3.859-7-7.931-7s-7.436 3.06-7.931 7h-5.069c-.552 0-1-.448-1-1zm14 8c-3.309 0-6-2.691-6-6s2.691-6 6-6 6 2.691 6 6-2.691 6-6 6zm30 0c-3.309 0-6-2.691-6-6s2.691-6 6-6 6 2.691 6 6-2.691 6-6 6z" fill="#00c6cf" data-original="#000000" style="" class=""/><path xmlns="http://www.w3.org/2000/svg" d="m47 49c-2.206 0-4 1.794-4 4s1.794 4 4 4 4-1.794 4-4-1.794-4-4-4zm0 6c-1.103 0-2-.897-2-2s.897-2 2-2 2 .897 2 2-.897 2-2 2z" fill="#00c6cf" data-original="#000000" style="" class=""/><path xmlns="http://www.w3.org/2000/svg" d="m21 39h28c.373 0 .715-.207.887-.538.173-.331.146-.729-.067-1.035l-6.104-8.72c-.749-1.069-1.974-1.707-3.278-1.707h-10.876c-1.304 0-2.528.638-3.276 1.707l-6.104 8.72c-.214.306-.24.704-.067 1.035.17.331.512.538.885.538zm21.076-9.147 5.003 7.147h-11.079v-8h4.438c.652 0 1.264.319 1.638.853zm-14.152 0c.374-.534.986-.853 1.638-.853h4.438v8h-11.079z" fill="#00c6cf" data-original="#000000" style="" class=""/><path xmlns="http://www.w3.org/2000/svg" d="m32 41h4v2h-4z" fill="#00c6cf" data-original="#000000" style="" class=""/><path xmlns="http://www.w3.org/2000/svg" d="m46 41h4v2h-4z" fill="#00c6cf" data-original="#000000" style="" class=""/><path xmlns="http://www.w3.org/2000/svg" d="m22.257 4.999-2.257.001c-.553 0-1 .448-1 1v9h2v-3h1c.552 0 1 .449 1 1v2h2v-2c0-.771-.301-1.468-.78-2 .479-.532.78-1.229.78-2v-2c0-.596-.179-1.076-.531-1.425-.594-.589-1.419-.58-2.212-.576zm-1.257 5.001v-3l1.272-.001c.225-.001.54-.004.728.018v1.983c0 .551-.448 1-1 1z" fill="#00c6cf" data-original="#000000" style="" class=""/><path xmlns="http://www.w3.org/2000/svg" d="m26 6v8c0 .552.447 1 1 1h4v-2h-3v-2h2v-2h-2v-2h3v-2h-4c-.553 0-1 .448-1 1z" fill="#00c6cf" data-original="#000000" style="" class=""/><path xmlns="http://www.w3.org/2000/svg" d="m36 9.764-2.105-4.211c-.207-.415-.678-.632-1.124-.526-.452.106-.771.509-.771.973v9h2v-4.764l2.105 4.211c.172.345.523.553.895.553.076 0 .153-.009.229-.027.452-.106.771-.509.771-.973v-9h-2z" fill="#00c6cf" data-original="#000000" style="" class=""/><path xmlns="http://www.w3.org/2000/svg" d="m39 7h2v8h2v-8h2v-2h-6z" fill="#00c6cf" data-original="#000000" style="" class=""/></g></svg>
