<?xml version="1.0"?>
<svg xmlns="http://www.w3.org/2000/svg" xmlns:xlink="http://www.w3.org/1999/xlink" xmlns:svgjs="http://svgjs.com/svgjs" version="1.1" width="512" height="512" x="0" y="0" viewBox="0 0 480 480" style="enable-background:new 0 0 512 512" xml:space="preserve" class=""><g>
<g xmlns="http://www.w3.org/2000/svg">
	<g>
		<path d="M232,240c-13.232,0-24,10.768-24,24s10.768,24,24,24s24-10.768,24-24S245.232,240,232,240z M232,272c-4.416,0-8-3.592-8-8    c0-4.408,3.584-8,8-8s8,3.592,8,8C240,268.408,236.416,272,232,272z" fill="#00c6cf" data-original="#000000" style="" class=""/>
	</g>
</g>
<g xmlns="http://www.w3.org/2000/svg">
	<g>
		<path d="M392,0c-48.52,0-88,39.48-88,88c0,16.032,4.296,31.552,12.472,45.176l-19.624,39.248c-1.536,3.08-0.936,6.8,1.504,9.232    C299.88,183.192,301.928,184,304,184c1.216,0,2.44-0.28,3.576-0.84l39.248-19.624C360.456,171.704,375.976,176,392,176    c48.52,0,88-39.48,88-88S440.52,0,392,0z M392,160c-14.416,0-28.328-4.248-40.224-12.28c-1.344-0.912-2.904-1.368-4.48-1.368    c-1.216,0-2.448,0.28-3.576,0.84l-21.832,10.92L332.8,136.28c1.288-2.584,1.088-5.664-0.52-8.056    C324.24,116.336,320,102.424,320,88c0-39.696,32.296-72,72-72c39.704,0,72,32.304,72,72S431.704,160,392,160z" fill="#00c6cf" data-original="#000000" style="" class=""/>
	</g>
</g>
<g xmlns="http://www.w3.org/2000/svg">
	<g>
		<path d="M128,320v-16c0-17.648,14.352-32,32-32v-16c-26.472,0-48,21.528-48,48v24c0,4.416,3.576,8,8,8h64v-16H128z" fill="#00c6cf" data-original="#000000" style="" class=""/>
	</g>
</g>
<g xmlns="http://www.w3.org/2000/svg">
	<g>
		<path d="M304,256v16c8.824,0,16,7.176,16,16v32h-48v16h56c4.424,0,8-3.584,8-8v-40C336,270.352,321.648,256,304,256z" fill="#00c6cf" data-original="#000000" style="" class=""/>
	</g>
</g>
<g xmlns="http://www.w3.org/2000/svg">
	<g>
		<path d="M448,320h-16h-64v-24c0-44.112-35.888-80-80-80h-27.304c-6.224-3.736-13.216-6.28-20.696-7.36v-17.776    c13.768-3.576,24-16,24-30.864c0-4.224-0.896-8.336-2.504-12.176C267.832,143.504,272,136.232,272,128V88    c0-2.736-1.4-5.28-3.704-6.752l-88-56C179.008,24.432,177.52,24,176,24H72V8c0-4.416-3.576-8-8-8H8C3.576,0,0,3.584,0,8v176    c0,4.416,3.576,8,8,8h56c4.424,0,8-3.584,8-8v-16h129.136c2.912,11.192,11.672,19.952,22.864,22.864v17.776    c-7.48,1.08-14.472,3.624-20.696,7.36H160c-44.112,0-80,35.888-80,80v24H32c-17.648,0-32,14.352-32,32v88c0,4.416,3.576,8,8,8    h45.48c9.008,18.888,28.24,32,50.52,32s41.504-13.112,50.52-32h138.96c9.008,18.888,28.24,32,50.52,32    c22.28,0,41.504-13.112,50.52-32H472c4.424,0,8-3.584,8-8v-56v-32C480,334.352,465.648,320,448,320z M56,32v128v16H16V16h40V32z     M208,152H72V40h101.672L256,92.392V128c0,4.408-3.584,8-8,8c-0.968,0-1.864-0.24-2.72-0.552c-0.24-0.088-0.472-0.176-0.704-0.288    c-0.72-0.344-1.376-0.784-1.96-1.32c-0.264-0.248-0.472-0.544-0.704-0.824C240.776,131.632,240,129.928,240,128v-16    c0-3.952-2.88-7.304-6.784-7.904l-86.984-13.384c-6.608-1.024-13.248,0.896-18.288,5.224c-5.048,4.336-7.944,10.632-7.944,17.288    c0,12.56,10.216,22.776,22.776,22.776H208c4.416,0,8,3.592,8,8S212.416,152,208,152z M224,118.864v7.264    c-4.248-3.808-9.856-6.128-16-6.128h-65.224c-3.736,0-6.776-3.04-6.776-6.776c0-2.712,1.488-4.384,2.368-5.144    c0.76-0.656,2.256-1.64,4.368-1.64c0.344,0,0.704,0.024,1.072,0.08L224,118.864z M217.232,166.152    c1.176-0.488,2.288-1.096,3.352-1.76c0.288-0.176,0.56-0.384,0.84-0.576c0.84-0.576,1.648-1.192,2.408-1.864    c0.288-0.248,0.568-0.496,0.84-0.76c0.872-0.848,1.696-1.744,2.432-2.72c0.064-0.08,0.136-0.152,0.2-0.24    c0.792-1.072,1.472-2.216,2.08-3.416c0.152-0.304,0.28-0.624,0.424-0.936c0.432-0.944,0.8-1.92,1.104-2.928    c0.104-0.352,0.216-0.696,0.312-1.048c0.336-1.328,0.6-2.68,0.712-4.088c0.336,0.304,0.744,0.536,1.096,0.824    c0.696,0.568,1.392,1.128,2.144,1.616c0.368,0.232,0.768,0.408,1.152,0.624c0.824,0.464,1.656,0.912,2.536,1.272    c0.448,0.184,0.912,0.32,1.368,0.48c0.848,0.296,1.712,0.552,2.6,0.752c0.52,0.112,1.048,0.2,1.576,0.28    c0.448,0.064,0.88,0.192,1.328,0.232C247.2,154.352,248,157.144,248,160c0,8.824-7.176,16-16,16    C225.36,176,219.648,171.928,217.232,166.152z M192.728,256.792c0.088-0.48,0.168-0.968,0.272-1.44    c0.504-2.256,1.168-4.44,2.032-6.536c0.144-0.352,0.32-0.688,0.48-1.032c0.872-1.96,1.888-3.848,3.056-5.624    c0.144-0.224,0.272-0.464,0.424-0.68c1.296-1.896,2.776-3.648,4.368-5.296c0.312-0.32,0.64-0.632,0.968-0.944    c1.56-1.504,3.224-2.896,5.008-4.128c0.144-0.096,0.272-0.216,0.416-0.32C216.12,226.504,223.768,224,232,224    s15.88,2.504,22.248,6.784c0.144,0.096,0.272,0.216,0.416,0.32c1.784,1.232,3.448,2.632,5.008,4.136    c0.328,0.312,0.656,0.616,0.968,0.936c1.592,1.64,3.072,3.4,4.368,5.296c0.152,0.224,0.272,0.456,0.424,0.68    c1.168,1.776,2.184,3.664,3.056,5.624c0.152,0.344,0.336,0.68,0.48,1.032c0.864,2.096,1.536,4.288,2.032,6.536    c0.104,0.472,0.184,0.96,0.272,1.44c0.432,2.352,0.728,4.744,0.728,7.216c0,17.76-11.936,33.56-29.024,38.432    c-2.88,0.824-5.064,3.184-5.648,6.128l-5.168,25.872c-0.352,1.744-0.112,3.56,0.68,5.144L239.056,352l-6.208,12.424    c-1.128,2.256-1.128,4.904,0,7.16l5.016,10.024L224,392v-82.792c0-3.392-2.136-6.408-5.328-7.544    C202.72,296.016,192,280.88,192,264C192,261.536,192.296,259.136,192.728,256.792z M143.264,431.288    c-0.216,1.128-0.568,2.24-0.88,3.352C137.688,451.512,122.344,464,104,464s-33.688-12.488-38.384-29.36    c-0.312-1.12-0.672-2.232-0.88-3.352C64.296,428.912,64,426.496,64,424c0-22.056,17.944-40,40-40c22.056,0,40,17.944,40,40    C144,426.496,143.704,428.912,143.264,431.288z M383.264,431.288c-0.216,1.128-0.568,2.24-0.88,3.352    C377.688,451.512,362.344,464,344,464s-33.688-12.488-38.384-29.36c-0.312-1.12-0.672-2.232-0.88-3.352    c-0.44-2.376-0.736-4.792-0.736-7.288c0-22.056,17.944-40,40-40c22.056,0,40,17.944,40,40    C384,426.496,383.704,428.912,383.264,431.288z M464,432h-64.584c0.032-0.224,0.016-0.44,0.048-0.664    c0.312-2.408,0.536-4.84,0.536-7.336c0-30.88-25.128-56-56-56s-56,25.12-56,56c0,2.488,0.224,4.928,0.536,7.336    c0.032,0.224,0.016,0.448,0.048,0.664H159.416c0.032-0.224,0.016-0.44,0.048-0.664c0.312-2.408,0.536-4.84,0.536-7.336    c0-30.88-25.128-56-56-56s-56,25.12-56,56c0,2.488,0.224,4.928,0.536,7.336c0.032,0.216,0.016,0.44,0.048,0.664H16v-80    c0-8.824,7.176-16,16-16h56c4.424,0,8-3.584,8-8v-32c0-35.288,28.712-64,64-64h26.04c-0.104,0.144-0.168,0.304-0.264,0.456    c-1.312,1.92-2.48,3.936-3.552,6.024c-0.312,0.616-0.6,1.232-0.896,1.856c-0.96,2.04-1.816,4.128-2.528,6.288    c-0.064,0.208-0.16,0.408-0.224,0.616c-0.744,2.36-1.28,4.8-1.704,7.28c-0.104,0.6-0.192,1.2-0.28,1.8    C176.24,258.84,176,261.392,176,264c0,21.712,12.648,41.36,32,50.552V408c0,3.032,1.712,5.8,4.424,7.16    c1.024,0.512,2.136,0.72,3.24,0.768c0.112,0,0.224,0.072,0.336,0.072c0.104,0,0.2-0.048,0.304-0.048    c0.568-0.024,1.12-0.128,1.672-0.272c0.224-0.056,0.44-0.08,0.656-0.152c0.76-0.264,1.496-0.624,2.16-1.128l32-24    c3.096-2.32,4.088-6.52,2.36-9.976L248.944,368l6.208-12.424c1.128-2.256,1.128-4.904,0-7.16l-6.776-13.544l3.728-18.648    C273.472,308,288,287.184,288,264c0-2.616-0.24-5.16-0.592-7.68c-0.08-0.6-0.176-1.2-0.272-1.8    c-0.424-2.48-0.96-4.928-1.704-7.288c-0.064-0.208-0.16-0.408-0.224-0.616c-0.712-2.16-1.568-4.256-2.528-6.288    c-0.288-0.624-0.584-1.24-0.896-1.856c-1.072-2.08-2.24-4.104-3.56-6.024c-0.096-0.144-0.168-0.304-0.264-0.448H288    c35.288,0,64,28.712,64,64v32c0,4.416,3.576,8,8,8h64v48c0,4.416,3.576,8,8,8h32V432z M464,376h-24v-40h8c8.824,0,16,7.176,16,16    V376z" fill="#00c6cf" data-original="#000000" style="" class=""/>
	</g>
</g>
<g xmlns="http://www.w3.org/2000/svg">
	<g>
		<path d="M392,80c-4.416,0-8-3.592-8-8s3.584-8,8-8c4.416,0,8,3.592,8,8c0,4.416,3.576,8,8,8s8-3.584,8-8    c0-10.416-6.712-19.216-16-22.528V40h-16v9.472c-9.288,3.312-16,12.112-16,22.528c0,13.232,10.768,24,24,24c4.416,0,8,3.592,8,8    s-3.584,8-8,8c-4.416,0-8-3.592-8-8h-16c0,10.416,6.712,19.216,16,22.528V136h16v-9.472c9.288-3.312,16-12.112,16-22.528    C416,90.768,405.232,80,392,80z" fill="#00c6cf" data-original="#000000" style="" class=""/>
	</g>
</g>
<g xmlns="http://www.w3.org/2000/svg">
</g>
<g xmlns="http://www.w3.org/2000/svg">
</g>
<g xmlns="http://www.w3.org/2000/svg">
</g>
<g xmlns="http://www.w3.org/2000/svg">
</g>
<g xmlns="http://www.w3.org/2000/svg">
</g>
<g xmlns="http://www.w3.org/2000/svg">
</g>
<g xmlns="http://www.w3.org/2000/svg">
</g>
<g xmlns="http://www.w3.org/2000/svg">
</g>
<g xmlns="http://www.w3.org/2000/svg">
</g>
<g xmlns="http://www.w3.org/2000/svg">
</g>
<g xmlns="http://www.w3.org/2000/svg">
</g>
<g xmlns="http://www.w3.org/2000/svg">
</g>
<g xmlns="http://www.w3.org/2000/svg">
</g>
<g xmlns="http://www.w3.org/2000/svg">
</g>
<g xmlns="http://www.w3.org/2000/svg">
</g>
</g></svg>
