<?xml version="1.0"?>
<svg xmlns="http://www.w3.org/2000/svg" xmlns:xlink="http://www.w3.org/1999/xlink" xmlns:svgjs="http://svgjs.com/svgjs" version="1.1" width="512" height="512" x="0" y="0" viewBox="0 0 462 462" style="enable-background:new 0 0 512 512" xml:space="preserve" class=""><g>
<g xmlns="http://www.w3.org/2000/svg">
	<g>
		<g>
			<path d="M122.788,407.017c0.001,13.222,10.719,23.94,23.941,23.939s23.94-10.719,23.939-23.941     c-0.001-13.221-10.719-23.939-23.94-23.939C133.512,383.091,122.802,393.801,122.788,407.017z" fill="#00c6cf" data-original="#000000" style="" class=""/>
			<path d="M319.164,282l19.482,42h48.518l-40.778-38.124c-2.641-2.484-6.128-3.87-9.754-3.876H319.164z" fill="#00c6cf" data-original="#000000" style="" class=""/>
			<path d="M256.232,282h-27.788c-3.955,0.017-7.728,1.665-10.429,4.554L182.999,324h73.233V282z" fill="#00c6cf" data-original="#000000" style="" class=""/>
			<path d="M381.647,402h3.518c7.876,0,14.067-6.791,14.067-14.667v-45.289c0.081-0.678,0.117-1.361,0.106-2.044H272.232v62h30.285     c2.979-21.851,23.108-37.15,44.959-34.171C365.248,370.252,379.224,384.228,381.647,402z" fill="#00c6cf" data-original="#000000" style="" class=""/>
			<polygon points="272.232,282 272.232,324 321.003,324 301.521,282    " fill="#00c6cf" data-original="#000000" style="" class=""/>
			<path d="M318.142,407.017c0.001,13.222,10.719,23.94,23.941,23.939c13.222-0.001,23.94-10.719,23.939-23.941     c-0.001-13.221-10.718-23.938-23.939-23.939C328.866,383.09,318.156,393.801,318.142,407.017z" fill="#00c6cf" data-original="#000000" style="" class=""/>
			<path d="M186.293,402h69.939v-62h-99v0.243c-0.785-0.037-1.567-0.118-2.343-0.243h-36.757c-16.067,0-28.9,13.438-28.9,29.506     v17.827c0,7.876,6.166,14.667,14.042,14.667h3.889c2.979-21.851,23.108-37.15,44.959-34.171     C169.894,370.252,183.87,384.228,186.293,402z" fill="#00c6cf" data-original="#000000" style="" class=""/>
			<path d="M446.769,446H23.232V64.671c0-27.09,22.5-48.671,49.591-48.671h128.409c24.217-0.069,44.851,17.567,48.552,41.5     c-30.638,4.198-53.49,30.342-53.552,61.266v6.572c0.046,4.281,3.554,7.713,7.834,7.667c0.068-0.001,0.135-0.002,0.203-0.005     h108.19c4.155,0.137,7.634-3.121,7.77-7.276c0.004-0.129,0.005-0.258,0.003-0.386v-6.572     c-0.006-31.284-23.371-57.638-54.43-61.391C261.978,24.624,234.205-0.055,201.232,0H72.823C36.911,0,7.232,28.759,7.232,64.671     v389.787c0,4.418,4.045,7.542,8.463,7.542h431.074c4.418,0,8-3.582,8-8S451.187,446,446.769,446z" fill="#00c6cf" data-original="#000000" style="" class=""/>
			<path d="M258.232,176.816c4.418,0,8-3.582,8-8v-16.178c0-4.418-3.582-8-8-8c-4.418,0-8,3.582-8,8v16.178     C250.232,173.234,253.813,176.816,258.232,176.816z" fill="#00c6cf" data-original="#000000" style="" class=""/>
			<path d="M304.232,176.816c4.418,0,8-3.582,8-8v-16.178c0-4.418-3.582-8-8-8s-8,3.582-8,8v16.178     C296.232,173.234,299.813,176.816,304.232,176.816z" fill="#00c6cf" data-original="#000000" style="" class=""/>
			<path d="M212.232,176.816c4.418,0,8-3.582,8-8v-16.178c0-4.418-3.582-8-8-8s-8,3.582-8,8v16.178     C204.232,173.234,207.813,176.816,212.232,176.816z" fill="#00c6cf" data-original="#000000" style="" class=""/>
			<path d="M250.232,214.316c0,4.418,3.582,8,8,8c4.418,0,8-3.582,8-8v-16.177c0-4.418-3.582-8-8-8c-4.418,0-8,3.582-8,8V214.316z" fill="#00c6cf" data-original="#000000" style="" class=""/>
			<path d="M296.232,214.316c0,4.418,3.582,8,8,8s8-3.582,8-8v-16.177c0-4.418-3.582-8-8-8s-8,3.582-8,8V214.316z" fill="#00c6cf" data-original="#000000" style="" class=""/>
			<path d="M204.232,214.316c0,4.418,3.582,8,8,8s8-3.582,8-8v-16.177c0-4.418-3.582-8-8-8s-8,3.582-8,8V214.316z" fill="#00c6cf" data-original="#000000" style="" class=""/>
			<path d="M220.806,246c0,4.418,3.582,8,8,8h11.426v20h16v-20h53v20h16v-20h10.536c4.418,0,8-3.582,8-8s-3.582-8-8-8H228.806     C224.387,238,220.806,241.582,220.806,246z" fill="#00c6cf" data-original="#000000" style="" class=""/>
		</g>
	</g>
</g>
<g xmlns="http://www.w3.org/2000/svg">
</g>
<g xmlns="http://www.w3.org/2000/svg">
</g>
<g xmlns="http://www.w3.org/2000/svg">
</g>
<g xmlns="http://www.w3.org/2000/svg">
</g>
<g xmlns="http://www.w3.org/2000/svg">
</g>
<g xmlns="http://www.w3.org/2000/svg">
</g>
<g xmlns="http://www.w3.org/2000/svg">
</g>
<g xmlns="http://www.w3.org/2000/svg">
</g>
<g xmlns="http://www.w3.org/2000/svg">
</g>
<g xmlns="http://www.w3.org/2000/svg">
</g>
<g xmlns="http://www.w3.org/2000/svg">
</g>
<g xmlns="http://www.w3.org/2000/svg">
</g>
<g xmlns="http://www.w3.org/2000/svg">
</g>
<g xmlns="http://www.w3.org/2000/svg">
</g>
<g xmlns="http://www.w3.org/2000/svg">
</g>
</g></svg>
