<?xml version="1.0"?>
<svg xmlns="http://www.w3.org/2000/svg" xmlns:xlink="http://www.w3.org/1999/xlink" xmlns:svgjs="http://svgjs.com/svgjs" version="1.1" width="512" height="512" x="0" y="0" viewBox="0 0 496 496" style="enable-background:new 0 0 512 512" xml:space="preserve" class=""><g>
<g xmlns="http://www.w3.org/2000/svg">
	<g>
		<path d="M336,209.472V176h-16V80h-16V0H192v48h64v32h-80v96h-16v33.472c-9.288,3.312-16,12.112-16,22.528s6.712,19.216,16,22.528    V264c0,10.416,6.712,19.216,16,22.528V424c0,13.232,10.768,24,24,24h16v48h64v-48h16c13.232,0,24-10.768,24-24V286.528    c9.288-3.312,16-12.112,16-22.528v-9.472c9.288-3.312,16-12.112,16-22.528S345.288,212.784,336,209.472z M208,32V16h80v64h-16V32    H208z M192,135.064l80.992-10.128l-1.984-15.872L192,118.936V96h64h48v8.936l-16.992,2.128l1.984,15.872L304,121.064v15.88    l-112,14V135.064z M192,167.064l112-14V176H192V167.064z M176,192h144v16H176V192z M176,264v-8h16v16h-8    C179.592,272,176,268.416,176,264z M264,480h-32v-32h32V480z M304,400h-80v16h80v8c0,4.416-3.592,8-8,8h-96c-4.408,0-8-3.584-8-8    v-8h16v-16h-16v-16h112V400z M304,368H192v-80h112V368z M208,272v-16h80v16H208z M320,264c0,4.416-3.592,8-8,8h-8v-16h16V264z     M328,240H168c-4.408,0-8-3.584-8-8s3.592-8,8-8h160c4.408,0,8,3.584,8,8S332.408,240,328,240z" fill="#00c6cf" data-original="#000000" style=""/>
	</g>
</g>
<g xmlns="http://www.w3.org/2000/svg">
</g>
<g xmlns="http://www.w3.org/2000/svg">
</g>
<g xmlns="http://www.w3.org/2000/svg">
</g>
<g xmlns="http://www.w3.org/2000/svg">
</g>
<g xmlns="http://www.w3.org/2000/svg">
</g>
<g xmlns="http://www.w3.org/2000/svg">
</g>
<g xmlns="http://www.w3.org/2000/svg">
</g>
<g xmlns="http://www.w3.org/2000/svg">
</g>
<g xmlns="http://www.w3.org/2000/svg">
</g>
<g xmlns="http://www.w3.org/2000/svg">
</g>
<g xmlns="http://www.w3.org/2000/svg">
</g>
<g xmlns="http://www.w3.org/2000/svg">
</g>
<g xmlns="http://www.w3.org/2000/svg">
</g>
<g xmlns="http://www.w3.org/2000/svg">
</g>
<g xmlns="http://www.w3.org/2000/svg">
</g>
</g></svg>
