<?xml version="1.0"?>
<svg xmlns="http://www.w3.org/2000/svg" xmlns:xlink="http://www.w3.org/1999/xlink" xmlns:svgjs="http://svgjs.com/svgjs" version="1.1" width="512" height="512" x="0" y="0" viewBox="0 0 64 64" style="enable-background:new 0 0 512 512" xml:space="preserve" class=""><g><path xmlns="http://www.w3.org/2000/svg" d="m60 20h3v-2h-2.33l-4.705-11.427c-1.395-3.385-4.661-5.573-8.322-5.573h-16.29c-3.065 0-5.891 1.537-7.557 4.11l-8.432 13.031-13.638 3.898c-.43.122-.726.515-.726.961v13c0 .552.447 1 1 1h5.059c.499 4.493 4.316 8 8.941 8s8.442-3.507 8.941-8h3.191l.54.811c1.523 2.284 2.328 4.943 2.328 7.689s-.805 5.405-2.328 7.689l-.73 1.096c-.616.924-.941 2-.941 3.109-.001 3.091 2.514 5.606 5.604 5.606 1.11 0 2.186-.326 3.109-.941l.68-.453c1.121-.747 2.334-1.333 3.605-1.767v3.161h2v-4c0-.334-.167-.646-.445-.832l-5.554-3.703v-3.465c0-.551.448-1 1-1s1 .449 1 1v3h2v-3-10c0-.551.448-1 1-1s1 .449 1 1v2 5h2v-5-2-2c0-.551.448-1 1-1s1 .449 1 1v2 2 5h2v-5-2c0-.551.448-1 1-1s1 .449 1 1v4 3h2v-3c0-.551.448-1 1-1s1 .449 1 1v10.586l-1.707 1.707c-.188.187-.293.442-.293.707v5h2v-1.132l.285.19c.924.616 1.999.942 3.11.942 3.09 0 5.605-2.515 5.605-5.605 0-1.11-.325-2.185-.941-3.109l-.73-1.096c-1.524-2.285-2.329-4.944-2.329-7.69s.805-5.405 2.328-7.689l.73-1.096c.616-.924.941-2 .941-3.109.001-3.091-2.514-5.606-5.604-5.606-1.11 0-2.186.326-3.109.941l-.68.453c-2.557 1.705-5.533 2.606-8.606 2.606s-6.049-.901-8.605-2.605l-.68-.453c-.924-.616-1.999-.942-3.11-.942-3.09 0-5.605 2.515-5.605 5.605 0 .475.072.941.188 1.395h-2.247c-.499-4.493-4.316-8-8.941-8s-8.442 3.507-8.941 8h-4.059v-6h3c.553 0 1-.448 1-1v-5.389l9.274-2.65c.233-.066.434-.215.565-.418l8.636-13.346c1.296-2.002 3.493-3.197 5.878-3.197h16.29c2.848 0 5.389 1.702 6.473 4.335l4.96 12.046c.153.374.519.619.924.619zm-27.395 10c.714 0 1.405.209 2 .605l.68.453c2.887 1.925 6.246 2.942 9.715 2.942s6.828-1.017 9.715-2.941l.68-.453c.595-.396 1.286-.605 2-.605 1.988-.001 3.605 1.616 3.605 3.604 0 .714-.209 1.406-.605 2l-.73 1.096c-1.744 2.614-2.665 5.656-2.665 8.799s.921 6.185 2.664 8.799l.73 1.096c.396.594.605 1.286.605 2 .001 1.988-1.616 3.605-3.604 3.605-.714 0-1.405-.209-2-.605l-.68-.453c-.233-.155-.476-.292-.715-.435v-1.092l1.707-1.707c.188-.188.293-.443.293-.708v-11c0-1.654-1.346-3-3-3-.352 0-.686.072-1 .184v-1.184c0-1.654-1.346-3-3-3-.395 0-.77.081-1.116.22-.345-1.275-1.501-2.22-2.884-2.22s-2.538.945-2.884 2.22c-.346-.139-.721-.22-1.116-.22-1.654 0-3 1.346-3 3v7.184c-.314-.112-.648-.184-1-.184-1.654 0-3 1.346-3 3v4c0 .334.167.646.445.832l3.803 2.535c-1.032.432-2.027.95-2.963 1.574l-.68.453c-.595.396-1.286.605-2 .605-1.988.001-3.605-1.616-3.605-3.604 0-.714.209-1.406.605-2l.73-1.096c1.744-2.614 2.665-5.656 2.665-8.799s-.921-6.185-2.664-8.799l-.73-1.096c-.396-.594-.605-1.286-.605-2-.001-1.988 1.616-3.605 3.604-3.605zm-16.605-1c3.859 0 7 3.14 7 7s-3.141 7-7 7-7-3.14-7-7 3.141-7 7-7zm-11-2h-2v-3.246l2-.571z" fill="#00c6cf" data-original="#000000" style=""/><path xmlns="http://www.w3.org/2000/svg" d="m16 41c2.757 0 5-2.243 5-5s-2.243-5-5-5-5 2.243-5 5 2.243 5 5 5zm0-8c1.654 0 3 1.346 3 3s-1.346 3-3 3-3-1.346-3-3 1.346-3 3-3z" fill="#00c6cf" data-original="#000000" style=""/><path xmlns="http://www.w3.org/2000/svg" d="m55.824 19.566c.187-.271.228-.617.109-.925l-4.013-10.436c-.738-1.917-2.614-3.205-4.667-3.205h-15.018c-1.749 0-3.341.89-4.259 2.38l-6.828 11.096c-.19.309-.198.695-.021 1.012s.511.512.873.512h33c.329 0 .638-.162.824-.434zm-26.144-11.138c.55-.894 1.506-1.428 2.555-1.428h5.765v11h-14.211zm10.32 9.572v-11h7.253c1.231 0 2.357.773 2.8 1.923l3.491 9.077z" fill="#00c6cf" data-original="#000000" style=""/><path xmlns="http://www.w3.org/2000/svg" d="m36 22h4v2h-4z" fill="#00c6cf" data-original="#000000" style=""/><path xmlns="http://www.w3.org/2000/svg" d="m52 22h4v2h-4z" fill="#00c6cf" data-original="#000000" style=""/><path xmlns="http://www.w3.org/2000/svg" d="m24 56c-2.206 0-4-1.794-4-4 0-.552-.447-1-1-1s-1 .448-1 1c0 2.206-1.794 4-4 4-.553 0-1 .448-1 1s.447 1 1 1c2.206 0 4 1.794 4 4 0 .552.447 1 1 1s1-.448 1-1c0-2.206 1.794-4 4-4 .553 0 1-.448 1-1s-.447-1-1-1zm-5 2.687c-.444-.668-1.019-1.242-1.687-1.687.668-.444 1.242-1.019 1.687-1.687.444.668 1.019 1.242 1.687 1.687-.668.444-1.243 1.019-1.687 1.687z" fill="#00c6cf" data-original="#000000" style=""/><path xmlns="http://www.w3.org/2000/svg" d="m12 49c-2.206 0-4-1.794-4-4 0-.552-.447-1-1-1s-1 .448-1 1c0 2.206-1.794 4-4 4-.553 0-1 .448-1 1s.447 1 1 1c2.206 0 4 1.794 4 4 0 .552.447 1 1 1s1-.448 1-1c0-2.206 1.794-4 4-4 .553 0 1-.448 1-1s-.447-1-1-1zm-5 2.687c-.444-.668-1.019-1.243-1.687-1.687.668-.444 1.243-1.019 1.687-1.687.444.668 1.019 1.243 1.687 1.687-.668.444-1.243 1.019-1.687 1.687z" fill="#00c6cf" data-original="#000000" style=""/><path xmlns="http://www.w3.org/2000/svg" d="m2 8c2.206 0 4 1.794 4 4 0 .552.447 1 1 1s1-.448 1-1c0-2.206 1.794-4 4-4 .553 0 1-.448 1-1s-.447-1-1-1c-2.206 0-4-1.794-4-4 0-.552-.447-1-1-1s-1 .448-1 1c0 2.206-1.794 4-4 4-.553 0-1 .448-1 1s.447 1 1 1zm5-2.687c.444.668 1.019 1.243 1.687 1.687-.668.444-1.243 1.019-1.687 1.687-.444-.668-1.019-1.243-1.687-1.687.668-.444 1.243-1.019 1.687-1.687z" fill="#00c6cf" data-original="#000000" style=""/></g></svg>
