<?xml version="1.0"?>
<svg xmlns="http://www.w3.org/2000/svg" xmlns:xlink="http://www.w3.org/1999/xlink" xmlns:svgjs="http://svgjs.com/svgjs" version="1.1" width="512" height="512" x="0" y="0" viewBox="0 0 473.375 473.375" style="enable-background:new 0 0 512 512" xml:space="preserve" class=""><g>
<g xmlns="http://www.w3.org/2000/svg">
	<g>
		<path d="M361.375,253.371h-32c-4.418,0-8,3.582-8,8h-36.688l-51.312-51.312v-76.688c0-2.122-0.844-4.156-2.344-5.656l-96-96    l-12.688-12.68c-9.372-9.373-24.568-9.375-33.941-0.003c-0.001,0.001-0.002,0.002-0.003,0.003L7.031,100.403    c-9.373,9.372-9.375,24.568-0.003,33.941c0.001,0.001,0.002,0.002,0.003,0.003l12.688,12.68l96,96    c1.5,1.5,3.534,2.344,5.656,2.344h76.688l16,16h-60.688c-4.418,0-8,3.582-8,8v168c0,13.255,10.745,24,24,24h16    c13.255,0,24-10.745,24-24v-112h32v32c0.026,22.08,17.92,39.974,40,40c4.418,0,8-3.582,8-8v-64h32c0,4.418,3.582,8,8,8h32    c4.418,0,8-3.582,8-8v-64C369.375,256.953,365.793,253.371,361.375,253.371z M18.343,123.035    c-3.126-3.122-3.129-8.188-0.006-11.314c0.002-0.002,0.004-0.004,0.006-0.006l81.368-81.368c3.122-3.126,8.188-3.129,11.314-0.006    c0.002,0.002,0.004,0.004,0.006,0.006l7.024,7.024l-92.68,92.688L18.343,123.035z M124.687,229.371l-88-88l92.688-92.688l88,88    v73.376l-19.312,19.312H124.687z M321.375,309.371h-40c-4.418,0-8,3.582-8,8v62.632c-9.582-3.403-15.988-12.464-16-22.632v-40    c0-4.418-3.582-8-8-8h-48c-4.418,0-8,3.582-8,8v120c0,4.418-3.582,8-8,8h-16c-4.418,0-8-3.582-8-8v-160h72    c4.418-0.001,7.999-3.583,7.998-8.002c0-2.121-0.843-4.154-2.342-5.654l-26.344-26.344l12.688-12.688l50.344,50.344    c1.5,1.5,3.534,2.344,5.656,2.344h40V309.371z M353.375,317.371h-16v-48h16V317.371z" fill="#00c6cf" data-original="#000000" style=""/>
	</g>
</g>
<g xmlns="http://www.w3.org/2000/svg">
	<g>
		<path d="M406.835,255.715c-3.1-2.995-8.016-2.995-11.116,0l-16,16c-3.178,3.07-3.266,8.134-0.196,11.312    c3.07,3.178,8.134,3.266,11.312,0.196c0.066-0.064,0.132-0.129,0.196-0.196l16-16    C410.101,263.849,410.013,258.784,406.835,255.715z" fill="#00c6cf" data-original="#000000" style=""/>
	</g>
</g>
<g xmlns="http://www.w3.org/2000/svg">
	<g>
		<path d="M407.031,319.715l-16-16c-3.178-3.07-8.242-2.982-11.312,0.196c-2.995,3.1-2.995,8.016,0,11.116l16,16    c3.178,3.07,8.242,2.982,11.312-0.196C410.026,327.731,410.026,322.815,407.031,319.715z" fill="#00c6cf" data-original="#000000" style=""/>
	</g>
</g>
<g xmlns="http://www.w3.org/2000/svg">
	<g>
		<path d="M439.031,351.715l-16-16c-3.178-3.07-8.242-2.982-11.312,0.196c-2.995,3.1-2.995,8.016,0,11.116l16,16    c3.178,3.07,8.242,2.982,11.312-0.196C442.026,359.731,442.026,354.815,439.031,351.715z" fill="#00c6cf" data-original="#000000" style=""/>
	</g>
</g>
<g xmlns="http://www.w3.org/2000/svg">
	<g>
		<path d="M471.031,383.715l-16-16c-3.178-3.07-8.242-2.982-11.312,0.196c-2.995,3.1-2.995,8.016,0,11.116l16,16    c3.178,3.07,8.242,2.982,11.312-0.196C474.026,391.731,474.026,386.815,471.031,383.715z" fill="#00c6cf" data-original="#000000" style=""/>
	</g>
</g>
<g xmlns="http://www.w3.org/2000/svg">
	<g>
		<path d="M439.031,223.715c-3.124-3.123-8.188-3.123-11.312,0l-16,16c-3.178,3.07-3.266,8.134-0.196,11.312    c3.07,3.178,8.134,3.266,11.312,0.196c0.066-0.064,0.132-0.129,0.196-0.196l16-16    C442.154,231.903,442.154,226.839,439.031,223.715z" fill="#00c6cf" data-original="#000000" style=""/>
	</g>
</g>
<g xmlns="http://www.w3.org/2000/svg">
	<g>
		<path d="M470.835,191.715c-3.1-2.994-8.015-2.994-11.116,0l-16,16c-3.178,3.07-3.266,8.134-0.196,11.312    c3.07,3.178,8.134,3.266,11.312,0.196c0.067-0.064,0.132-0.13,0.196-0.196l16-16C474.1,199.849,474.012,194.784,470.835,191.715z" fill="#00c6cf" data-original="#000000" style=""/>
	</g>
</g>
<g xmlns="http://www.w3.org/2000/svg">
	<g>
		<path d="M425.375,285.371h-16c-4.418,0-8,3.582-8,8s3.582,8,8,8h16c4.418,0,8-3.582,8-8S429.793,285.371,425.375,285.371z" fill="#00c6cf" data-original="#000000" style=""/>
	</g>
</g>
<g xmlns="http://www.w3.org/2000/svg">
	<g>
		<path d="M465.375,285.371h-16c-4.418,0-8,3.582-8,8s3.582,8,8,8h16c4.418,0,8-3.582,8-8S469.793,285.371,465.375,285.371z" fill="#00c6cf" data-original="#000000" style=""/>
	</g>
</g>
<g xmlns="http://www.w3.org/2000/svg">
</g>
<g xmlns="http://www.w3.org/2000/svg">
</g>
<g xmlns="http://www.w3.org/2000/svg">
</g>
<g xmlns="http://www.w3.org/2000/svg">
</g>
<g xmlns="http://www.w3.org/2000/svg">
</g>
<g xmlns="http://www.w3.org/2000/svg">
</g>
<g xmlns="http://www.w3.org/2000/svg">
</g>
<g xmlns="http://www.w3.org/2000/svg">
</g>
<g xmlns="http://www.w3.org/2000/svg">
</g>
<g xmlns="http://www.w3.org/2000/svg">
</g>
<g xmlns="http://www.w3.org/2000/svg">
</g>
<g xmlns="http://www.w3.org/2000/svg">
</g>
<g xmlns="http://www.w3.org/2000/svg">
</g>
<g xmlns="http://www.w3.org/2000/svg">
</g>
<g xmlns="http://www.w3.org/2000/svg">
</g>
</g></svg>
