<?xml version="1.0"?>
<svg xmlns="http://www.w3.org/2000/svg" xmlns:xlink="http://www.w3.org/1999/xlink" xmlns:svgjs="http://svgjs.com/svgjs" version="1.1" width="512" height="512" x="0" y="0" viewBox="0 0 512 512" style="enable-background:new 0 0 512 512" xml:space="preserve" class=""><g><g xmlns="http://www.w3.org/2000/svg"><path d="M104,400a24,24,0,1,0,24,24A24.028,24.028,0,0,0,104,400Zm0,32a8,8,0,1,1,8-8A8.009,8.009,0,0,1,104,432Z" fill="#00c6cf" data-original="#000000" style="" class=""/><path d="M408,400a24,24,0,1,0,24,24A24.028,24.028,0,0,0,408,400Zm0,32a8,8,0,1,1,8-8A8.009,8.009,0,0,1,408,432Z" fill="#00c6cf" data-original="#000000" style="" class=""/><path d="M488,384V336a48.051,48.051,0,0,0-48-48H373.54l-22-58.68A43.052,43.052,0,0,0,310.7,200H160a43.044,43.044,0,0,0-40.72,28.97L90.96,288H80V112a32.042,32.042,0,0,1,32-32H216v24a8,8,0,0,0,8,8h64a8,8,0,0,0,8-8V96h16a8,8,0,0,0,0-16H296V64h16a8,8,0,0,0,0-16H296V40a8,8,0,0,0-8-8H224a8,8,0,0,0-8,8V64H112a48.051,48.051,0,0,0-48,48V288.68A48.069,48.069,0,0,0,24,336v48A16.021,16.021,0,0,0,8,400v16a16.021,16.021,0,0,0,16,16H48.58a55.994,55.994,0,0,0,110.84,0H352.58a55.994,55.994,0,0,0,110.84,0H488a16.021,16.021,0,0,0,16-16V400A16.021,16.021,0,0,0,488,384ZM232,48h48V96H232ZM356.46,288H256V240h82.46ZM40,344H56v8H40Zm8.58,72H24V400H53.41A55.5,55.5,0,0,0,48.58,416ZM104,464a40,40,0,1,1,40-40A40.04,40.04,0,0,1,104,464Zm248.58-48H159.42a55.5,55.5,0,0,0-4.83-16H357.41A55.5,55.5,0,0,0,352.58,416ZM408,464a40,40,0,1,1,40-40A40.04,40.04,0,0,1,408,464Zm40-80a7.337,7.337,0,0,0-.81.05,55.871,55.871,0,0,0-78.37-.01A7.383,7.383,0,0,0,368,384H144a7.383,7.383,0,0,0-.82.04,55.871,55.871,0,0,0-78.37.01A7.337,7.337,0,0,0,64,384H40V368H64a8,8,0,0,0,8-8V336a8,8,0,0,0-8-8H41.01A32.058,32.058,0,0,1,72,304H96a8,8,0,0,0,7.21-4.54l30.71-64a7.5,7.5,0,0,0,.37-.93A27.079,27.079,0,0,1,160,216H310.7a27.027,27.027,0,0,1,19.22,8H160a8,8,0,0,0-8,8v64a8,8,0,0,0,8,8H440a32.058,32.058,0,0,1,30.99,24H448a8,8,0,0,0-8,8v24a8,8,0,0,0,8,8h24v16ZM240,240v48H168V240ZM472,344v8H456v-8Zm16,72H463.42a55.5,55.5,0,0,0-4.83-16H488Z" fill="#00c6cf" data-original="#000000" style="" class=""/><path d="M256,328h40a8,8,0,0,0,0-16H256a8,8,0,0,0,0,16Z" fill="#00c6cf" data-original="#000000" style="" class=""/></g></g></svg>
