<?xml version="1.0"?>
<svg xmlns="http://www.w3.org/2000/svg" xmlns:xlink="http://www.w3.org/1999/xlink" xmlns:svgjs="http://svgjs.com/svgjs" version="1.1" width="512" height="512" x="0" y="0" viewBox="0 0 444.904 444.904" style="enable-background:new 0 0 512 512" xml:space="preserve" class=""><g>
<g xmlns="http://www.w3.org/2000/svg">
	<path d="M444.871,123.25c0.001-1.077-0.405-2.119-1.187-2.878l-89.188-86.546c-0.565-0.548-1.28-0.918-2.055-1.062l-89.516-16.64   c-0.933-0.173-1.897-0.009-2.72,0.462L15.945,156.554c-1.257,0.721-2.008,2.054-2.008,3.47l-0.009,154.415   c0,1.429,0.762,2.75,2,3.464l49.696,28.691l-32.732,56.952l-30.89,17.836c-1.913,1.104-2.569,3.551-1.464,5.464   c0.741,1.283,2.085,2.001,3.468,2.001c0.678,0,1.366-0.173,1.996-0.537l31.248-18.042l103.17-20.491l54.22,31.303   c0.619,0.357,1.309,0.536,2,0.536c0.686,0,1.373-0.177,1.988-0.529l60.715-34.785c2.497,7.523,6.946,13.276,13.056,16.812   c0,0,30.81,17.893,31.044,18.028c4.227,2.441,8.977,3.656,14.046,3.656c6.136,0,12.741-1.781,19.455-5.324   c11.656-6.154,22.38-16.998,30.196-30.536c7.816-13.538,11.846-28.247,11.347-41.419c-0.525-13.853-5.961-24.452-15.305-29.847   c-0.408-0.235-13.246-7.634-21.994-12.674c7.722-1.457,15.04-0.599,21.255,2.986c3.798,2.195,7.018,5.345,9.569,9.36   c1.146,1.806,3.51,2.388,5.365,1.326l65.516-37.534c1.244-0.713,2.012-2.037,2.012-3.471V123.25H444.871z M434.299,122.414   L197.268,258.223l-82.311-80.207L351.093,41.672L434.299,122.414z M262.907,24.259l77.421,14.391l-232.66,134.336l-78.354-14.873   L262.907,24.259z M21.927,164.854l84.525,16.045l86.186,83.982v85.115L21.927,251.442V164.854z M21.927,260.679l170.711,98.554   v51.453L21.927,312.129V260.679z M72.551,350.594l26.026,15.025l-51.876,29.953L72.551,350.594z M58.782,397.834l47.794-27.596   l23.33,13.469L58.782,397.834z M359.181,324.6c6.876,3.971,10.894,12.218,11.311,23.222c0.443,11.686-3.208,24.867-10.28,37.116   c-7.072,12.25-16.663,22.002-27.003,27.461c-9.739,5.14-18.89,5.783-25.766,1.815c-6.876-3.971-10.894-12.218-11.311-23.222   c-0.443-11.686,3.208-24.867,10.28-37.116c0,0,0,0,0,0c11.307-19.584,28.522-31.895,42.563-31.895   C352.648,321.981,356.106,322.824,359.181,324.6z M342.064,314.781c-4.028,0.833-8.182,2.342-12.383,4.559   c-11.657,6.153-22.38,16.997-30.196,30.535c-7.816,13.538-11.846,28.247-11.347,41.419c0.18,4.742,0.948,9.091,2.239,12.992   l-13.969-8.097c-5.733-3.318-8.552-8.994-9.939-13.971l10.342-5.925c0.921-0.527,1.594-1.399,1.872-2.424   c2.41-8.881,6.09-17.638,10.941-26.027c11.051-19.132,26.287-33.157,41.166-39.599L342.064,314.781z M376.557,309.92   c-2.851-3.653-6.241-6.626-10.114-8.864c-12.139-7.002-27.66-6.197-43.702,2.271c-15.441,8.15-29.663,22.539-40.044,40.514   c-4.904,8.482-8.696,17.331-11.285,26.327l-70.773,40.547v-51.472l236.267-135.37v51.475L376.557,309.92z M436.904,214.652   L200.638,350.022v-84.511l236.267-135.37V214.652z" fill="#00c6cf" data-original="#000000" style="" class=""/>
	<path d="M318.688,394.738c1.389,0.801,3.005,1.217,4.782,1.217c6.634,0,15.5-5.793,23.073-18.909   c3.647-6.317,5.984-12.959,6.581-18.7c0.713-6.859-1.129-11.927-5.187-14.269c-4.056-2.344-9.367-1.404-14.951,2.642   c-4.674,3.388-9.257,8.732-12.904,15.05C310.481,378.397,312.112,390.941,318.688,394.738z M327.009,365.768L327.009,365.768   c3.052-5.287,6.941-9.869,10.671-12.571c2.342-1.698,4.254-2.373,5.412-2.373c0.356,0,0.641,0.063,0.845,0.182   c0.866,0.499,1.62,2.751,1.229,6.513c-0.476,4.581-2.5,10.24-5.552,15.527c-6.591,11.416-14.703,16.043-16.927,14.764   C320.466,386.526,320.419,377.184,327.009,365.768z" fill="#00c6cf" data-original="#000000" style="" class=""/>
</g>
<g xmlns="http://www.w3.org/2000/svg">
</g>
<g xmlns="http://www.w3.org/2000/svg">
</g>
<g xmlns="http://www.w3.org/2000/svg">
</g>
<g xmlns="http://www.w3.org/2000/svg">
</g>
<g xmlns="http://www.w3.org/2000/svg">
</g>
<g xmlns="http://www.w3.org/2000/svg">
</g>
<g xmlns="http://www.w3.org/2000/svg">
</g>
<g xmlns="http://www.w3.org/2000/svg">
</g>
<g xmlns="http://www.w3.org/2000/svg">
</g>
<g xmlns="http://www.w3.org/2000/svg">
</g>
<g xmlns="http://www.w3.org/2000/svg">
</g>
<g xmlns="http://www.w3.org/2000/svg">
</g>
<g xmlns="http://www.w3.org/2000/svg">
</g>
<g xmlns="http://www.w3.org/2000/svg">
</g>
<g xmlns="http://www.w3.org/2000/svg">
</g>
</g></svg>
