<?xml version="1.0"?>
<svg xmlns="http://www.w3.org/2000/svg" xmlns:xlink="http://www.w3.org/1999/xlink" xmlns:svgjs="http://svgjs.com/svgjs" version="1.1" width="512" height="512" x="0" y="0" viewBox="0 0 64 64" style="enable-background:new 0 0 512 512" xml:space="preserve" class=""><g><g xmlns="http://www.w3.org/2000/svg" id="Engineering"><path d="M61,37a1,1,0,0,0,1-1V28a1,1,0,0,0-1-1H55.467a23.856,23.856,0,0,0-3.337-8.057l3.908-3.917a1,1,0,0,0,0-1.413l-5.65-5.65a1,1,0,0,0-1.413,0L45.057,11.87A23.856,23.856,0,0,0,37,8.533V3a1,1,0,0,0-1-1H28a1,1,0,0,0-1,1V8.533a23.856,23.856,0,0,0-8.057,3.337L15.026,7.962a1,1,0,0,0-1.413,0l-5.65,5.65a1,1,0,0,0,0,1.413l3.908,3.917A23.856,23.856,0,0,0,8.533,27H3a1,1,0,0,0-1,1v8a1,1,0,0,0,1,1H8.533a23.856,23.856,0,0,0,3.337,8.057L7.962,48.974a1,1,0,0,0,0,1.413l5.65,5.65a1,1,0,0,0,1.413,0l3.917-3.908A23.856,23.856,0,0,0,27,55.467V61a1,1,0,0,0,1,1h8a1,1,0,0,0,1-1V55.467a23.88,23.88,0,0,0,8.054-3.342l8.159,8.159a5,5,0,0,0,7.071-7.071l-8.159-8.159A23.88,23.88,0,0,0,55.467,37ZM58.87,58.87a3,3,0,0,1-4.243,0L35.479,39.723a4.979,4.979,0,0,0-3.542-1.456,5.249,5.249,0,0,0-.624.037A7.993,7.993,0,0,1,22.639,28.3l4.411,4.412a1,1,0,0,0,.707.293H32a1,1,0,0,0,1-1V27.757a1,1,0,0,0-.293-.707L28.3,22.639A7.993,7.993,0,0,1,38.3,31.313a5.006,5.006,0,0,0,1.419,4.166L58.87,54.627A3,3,0,0,1,58.87,58.87Zm-17.733-24.8a3.015,3.015,0,0,1-.846-2.515A9.993,9.993,0,0,0,26.056,21.345a1,1,0,0,0-.274,1.609L31,28.171V31H28.171l-5.217-5.218a1,1,0,0,0-1.609.274A9.992,9.992,0,0,0,31.55,40.29a3.016,3.016,0,0,1,2.515.847l5.144,5.143a16.01,16.01,0,1,1,7.071-7.071Zm12.518,1.766a21.8,21.8,0,0,1-2.974,7.779l-2.924-2.924a18.021,18.021,0,1,0-7.071,7.071l2.924,2.924a21.8,21.8,0,0,1-7.779,2.974A1,1,0,0,0,35,54.64V60H29V54.64a1,1,0,0,0-.831-.985A21.789,21.789,0,0,1,19.4,50.021a1,1,0,0,0-1.282.111l-3.792,3.785-4.238-4.238,3.785-3.792a1,1,0,0,0,.111-1.282,21.789,21.789,0,0,1-3.634-8.774A1,1,0,0,0,9.36,35H4V29H9.36a1,1,0,0,0,.985-.831A21.789,21.789,0,0,1,13.979,19.4a1,1,0,0,0-.111-1.282l-3.785-3.792,4.238-4.238,3.792,3.785a1,1,0,0,0,1.282.111,21.789,21.789,0,0,1,8.774-3.634A1,1,0,0,0,29,9.36V4h6V9.36a1,1,0,0,0,.831.985,21.789,21.789,0,0,1,8.774,3.634,1,1,0,0,0,1.282-.111l3.792-3.785,4.238,4.238-3.785,3.792a1,1,0,0,0-.111,1.282,21.789,21.789,0,0,1,3.634,8.774A1,1,0,0,0,54.64,29H60v6H54.64A1,1,0,0,0,53.655,35.831Z" fill="#00c6cf" data-original="#000000" style="" class=""/><path d="M38.364,36.95a1,1,0,1,0-1.414,1.414l.707.707a1,1,0,0,0,1.414-1.414Z" fill="#00c6cf" data-original="#000000" style="" class=""/><path d="M52.506,53.92a1,1,0,0,0,1.414-1.414L41.9,40.485A1,1,0,0,0,40.485,41.9Z" fill="#00c6cf" data-original="#000000" style="" class=""/><path d="M56.042,57.456a1,1,0,0,0,1.414-1.414l-.707-.708a1,1,0,1,0-1.415,1.415Z" fill="#00c6cf" data-original="#000000" style="" class=""/></g></g></svg>
